<svg width="100" height="100" viewBox="0 0 100 100" fill="none" xmlns="http://www.w3.org/2000/svg">
<rect width="100" height="100" rx="30" fill="#C02121"/>
<path d="M79.6598 76.3491C75.2708 68.4584 68.5071 62.8003 60.6138 60.1181C64.5182 57.701 67.5517 54.0179 69.2484 49.6345C70.9451 45.251 71.2112 40.4096 70.0059 35.8536C68.8005 31.2977 66.1904 27.2791 62.5763 24.4151C58.9621 21.5511 54.5439 20 50 20C45.4561 20 41.0379 21.5511 37.4237 24.4151C33.8096 27.2791 31.1995 31.2977 29.9941 35.8536C28.7888 40.4096 29.0549 45.251 30.7516 49.6345C32.4483 54.0179 35.4818 57.701 39.3862 60.1181C31.4929 62.7973 24.7292 68.4554 20.3402 76.3491C20.1792 76.622 20.0724 76.9257 20.0262 77.2422C19.9799 77.5587 19.9951 77.8817 20.0708 78.192C20.1465 78.5023 20.2812 78.7938 20.4669 79.0491C20.6527 79.3044 20.8857 79.5184 21.1523 79.6786C21.4189 79.8387 21.7137 79.9417 22.0191 79.9814C22.3246 80.0212 22.6347 79.9969 22.931 79.9101C23.2273 79.8232 23.5039 79.6755 23.7444 79.4757C23.985 79.2758 24.1846 79.0279 24.3315 78.7466C29.7609 68.9888 39.3574 63.1629 50 63.1629C60.6426 63.1629 70.2391 68.9888 75.6685 78.7466C75.8154 79.0279 76.015 79.2758 76.2556 79.4757C76.4961 79.6755 76.7727 79.8232 77.069 79.9101C77.3653 79.9969 77.6754 80.0212 77.9809 79.9814C78.2863 79.9417 78.5811 79.8387 78.8477 79.6786C79.1143 79.5184 79.3473 79.3044 79.5331 79.0491C79.7188 78.7938 79.8535 78.5023 79.9292 78.192C80.0049 77.8817 80.0201 77.5587 79.9738 77.2422C79.9275 76.9257 79.8208 76.622 79.6598 76.3491ZM33.8617 41.5855C33.8617 38.2663 34.8082 35.0216 36.5815 32.2617C38.3548 29.5019 40.8753 27.3508 43.8242 26.0806C46.773 24.8104 50.0179 24.478 53.1484 25.1256C56.2789 25.7731 59.1545 27.3715 61.4115 29.7186C63.6685 32.0656 65.2055 35.056 65.8282 38.3115C66.4509 41.5669 66.1313 44.9413 64.9098 48.0079C63.6884 51.0745 61.6199 53.6955 58.9659 55.5396C56.312 57.3837 53.1918 58.368 50 58.368C45.7213 58.3632 41.6191 56.5935 38.5936 53.4472C35.5681 50.301 33.8663 46.0351 33.8617 41.5855Z" fill="white"/>
</svg>
